HIERARCHY
ROOT Pelvis
{
	OFFSET 0.000000 0.000000 0.000000
	CHANNELS 6 Xposition Yposition Zposition Zrotation Yrotation Xrotation 
	JOINT Left_hip
	{
		OFFSET 0.076090 -0.089427 -0.010735
		CHANNELS 3 Zrotation Yrotation Xrotation
		JOINT Left_knee
		{
			OFFSET 0.030200 -0.359518 -0.003501
			CHANNELS 3 Zrotation Yrotation Xrotation
			JOINT Left_ankle
			{
				OFFSET -0.011005 -0.371022 -0.045888
				CHANNELS 3 Zrotation Yrotation Xrotation
				JOINT Left_foot
				{
					OFFSET 0.023930 -0.052103 0.111084
					CHANNELS 3 Zrotation Yrotation Xrotation
					End Site
					{
						OFFSET 0.000000 0.000000 0.000000
					}
				}
			}
		}
	}
	JOINT Right_hip
	{
		OFFSET -0.073836 -0.088112 -0.007709
		CHANNELS 3 Zrotation Yrotation Xrotation
		JOINT Right_knee
		{
			OFFSET -0.035715 -0.367809 -0.006536
			CHANNELS 3 Zrotation Yrotation Xrotation
			JOINT Right_ankle
			{
				OFFSET 0.013718 -0.371958 -0.043815
				CHANNELS 3 Zrotation Yrotation Xrotation
				JOINT Right_foot
				{
					OFFSET -0.021936 -0.046387 0.114542
					CHANNELS 3 Zrotation Yrotation Xrotation
					End Site
					{
						OFFSET 0.000000 0.000000 0.000000
					}
				}
			}
		}
	}
	JOINT Spine1
	{
		OFFSET -0.001865 0.102064 -0.019455
		CHANNELS 3 Zrotation Yrotation Xrotation
		JOINT Spine2
		{
			OFFSET 0.003082 0.129260 -0.001938
			CHANNELS 3 Zrotation Yrotation Xrotation
			JOINT Spine3
			{
				OFFSET 0.001104 0.048093 0.026561
				CHANNELS 3 Zrotation Yrotation Xrotation
				JOINT Neck
				{
					OFFSET -0.002010 0.204222 -0.047183
					CHANNELS 3 Zrotation Yrotation Xrotation
					JOINT Head
					{
						OFFSET 0.005050 0.063649 0.048489
						CHANNELS 3 Zrotation Yrotation Xrotation
						End Site
						{
							OFFSET 0.000000 0.000000 0.000000
						}
					}
				}
				JOINT Left_collar
				{
					OFFSET 0.072979 0.114065 -0.031633
					CHANNELS 3 Zrotation Yrotation Xrotation
					JOINT Left_shoulder
					{
						OFFSET 0.083419 0.032092 -0.006530
						CHANNELS 3 Zrotation Yrotation Xrotation
						JOINT Left_elbow
						{
							OFFSET 0.239393 -0.012014 -0.025060
							CHANNELS 3 Zrotation Yrotation Xrotation
							JOINT Left_wrist
							{
								OFFSET 0.227297 0.008116 0.000384
								CHANNELS 3 Zrotation Yrotation Xrotation
								JOINT Left_palm
								{
									OFFSET 0.074607 -0.009248 -0.012277
									CHANNELS 3 Zrotation Yrotation Xrotation
									End Site
									{
										OFFSET 0.000000 0.000000 0.000000
									}
								}
							}
						}
					}
				}
				JOINT Right_collar
				{
					OFFSET -0.074980 0.111880 -0.037894
					CHANNELS 3 Zrotation Yrotation Xrotation
					JOINT Right_shoulder
					{
						OFFSET -0.087565 0.034353 -0.009323
						CHANNELS 3 Zrotation Yrotation Xrotation
						JOINT Right_elbow
						{
							OFFSET -0.236838 -0.013719 -0.019794
							CHANNELS 3 Zrotation Yrotation Xrotation
							JOINT Right_wrist
							{
								OFFSET -0.235053 0.006433 -0.003853
								CHANNELS 3 Zrotation Yrotation Xrotation
								JOINT Right_palm
								{
									OFFSET -0.075499 -0.006894 -0.009792
									CHANNELS 3 Zrotation Yrotation Xrotation
									End Site
									{
										OFFSET 0.000000 0.000000 0.000000
									}
								}
							}
						}
					}
				}
			}
		}
	}
}
MOTION
Frames: 6
Frame Time: 0.100000
0.000000 0.000000 0.000000 174.661616 29.180175 -14.251945 2.293949 0.762307 5.959983 -3.489941 -7.889165 -7.229381 -3.336448 3.559672 -1.329703 3.246468 6.064183 -3.033052 0.424303 -3.162070 6.830263 3.528718 -0.591303 -5.181835 6.452696 -9.001936 -7.071403 -8.787726 6.452183 5.405037 0.149947 2.265364 2.802178 1.442626 -3.602956 3.189443 1.626291 -0.984768 -3.023289 -0.468442 1.431701 -9.953212 0.164029 -5.850733 4.974106 -31.036020 -17.121366 5.951797 -48.666900 -19.849094 14.370379 5.417167 -22.008462 4.215621 1.773274 -9.328115 8.808440 -11.341423 -3.860700 -11.755755 30.239551 16.992309 6.852221 44.877269 8.648783 16.650388 -6.237497 29.977365 2.080156 2.376964 6.703533 -3.051335 10.323734 6.326098 -4.946526 
-0.002001 0.000368 0.001581 174.447987 29.463173 -14.077604 2.448191 1.228381 5.867528 -3.470227 -8.911990 -7.343508 -3.890664 4.595897 -1.757167 4.451698 3.619569 -2.630879 0.563685 -3.237654 6.862496 3.386643 -0.080268 -5.442148 7.092788 -9.215699 -7.232153 -10.092606 5.153120 5.153706 0.046346 2.356757 2.972237 1.827337 -3.940373 3.064823 1.717085 -1.100672 -2.791928 -0.615518 1.272288 -9.397656 0.955421 -6.011392 3.657055 -31.440021 -14.940787 7.058944 -49.551475 -13.704373 15.354333 1.018657 -11.651065 13.167739 -1.192196 -8.792074 14.907805 -12.665622 -4.634677 -16.519882 30.798358 14.621626 7.697580 45.646242 4.550519 14.686581 -4.895549 17.451683 3.604535 4.910916 4.801473 0.517059 10.998340 6.667206 -7.209817 
-0.004595 0.000042 0.004223 174.265347 29.696797 -13.762128 2.574418 1.744010 5.736773 -3.479760 -9.753425 -7.450869 -4.557692 5.469045 -1.950522 5.758828 1.983579 -2.954994 0.709673 -3.315041 6.803052 3.144125 0.556111 -5.675974 8.061478 -9.457727 -7.271729 -12.225790 4.026202 4.326689 0.312545 2.114551 3.262352 1.785897 -3.921944 2.643071 1.767499 -1.335658 -2.205174 -0.682165 0.344638 -9.435037 1.684376 -5.485168 1.947981 -31.783990 -10.397988 7.237516 -51.402951 -6.894010 14.121604 1.234894 -3.166734 17.034203 -3.614320 -7.185386 19.225751 -13.513700 -5.373752 -20.413176 30.261836 10.605491 7.421218 46.399492 -0.164070 11.804519 -5.567251 8.235053 2.772847 6.848764 2.770265 3.084987 11.589712 6.758143 -8.683425 
-0.003514 -0.000771 0.002302 174.285446 29.183316 -13.333583 2.495464 1.546641 4.965047 -3.453590 -9.655751 -6.898394 -5.442853 6.869804 -1.946273 7.397432 0.940045 -3.486656 0.944766 -3.180241 5.781706 2.839498 1.478675 -4.954384 9.481787 -10.213508 -7.216391 -15.445277 4.517836 2.777194 0.799670 1.743898 4.259501 1.357202 -3.335302 1.961684 1.894100 -1.291766 -1.303967 -1.370917 -1.049382 -11.047229 2.689954 -4.568747 -0.076828 -30.839963 -5.433143 6.124767 -52.032500 -1.812173 9.786537 2.480092 -0.304389 9.689683 -5.252681 -5.982291 13.425069 -12.785075 -5.296820 -19.109457 28.776449 7.140059 6.735301 46.185239 -4.227627 10.267159 -5.699696 6.264078 1.212059 9.218188 1.482234 4.300036 10.875382 6.446495 -8.231202 
0.000956 -0.000069 -0.004236 174.446817 28.256117 -12.666820 2.494791 1.019877 3.807688 -3.603928 -8.911750 -6.691556 -5.456727 8.074816 -1.555208 7.141615 0.920796 -3.392103 0.947434 -3.293431 4.273191 3.013057 2.777311 -4.545398 10.066273 -11.227611 -6.868290 -17.441672 7.196290 1.353158 1.515860 1.291899 5.453646 0.615814 -2.450800 0.513928 2.061490 -1.159172 -0.144334 -2.414263 -2.636337 -13.275148 3.331634 -2.978976 -0.539074 -30.339160 -1.411954 3.553041 -51.360355 -2.327707 1.357382 4.969157 5.647570 -13.261718 -0.966177 -2.726129 -1.349945 -11.010115 -5.152905 -11.732397 28.235069 4.978063 5.169878 44.472042 -4.373452 9.730515 -4.977972 5.892942 -2.130149 8.388775 0.372003 5.648899 9.591883 6.218196 -5.168818 
0.008084 0.002351 -0.015158 174.604647 27.836504 -12.410132 2.508384 1.412263 2.782146 -3.606293 -8.915839 -6.821830 -5.141401 7.787516 -1.035227 6.394680 1.417128 -2.697017 0.911631 -3.408674 3.283395 3.119770 2.972591 -4.858829 10.086760 -11.460902 -6.456399 -17.599965 8.597651 1.580965 1.677977 1.463419 6.413770 0.395088 -2.605588 0.187377 2.008444 -0.977292 -0.325907 -2.883722 -2.684574 -13.828832 3.485488 -3.292694 -0.242847 -29.774338 -4.807207 3.046916 -49.226578 -5.766803 0.178442 5.012982 9.426759 -17.892087 4.334032 0.513475 -0.422832 -12.049580 -5.684354 -11.697366 27.945577 7.580977 4.802532 43.850180 -2.026966 8.783308 -5.134096 5.145323 -5.162564 5.464462 0.515805 3.757173 10.609153 6.497277 -5.172988 
